<svg xmlns="http://www.w3.org/2000/svg" width="1180" height="794" viewBox="0 0 1180 794" font-family="ui-sans-serif, -apple-system, Segoe UI, Roboto, Helvetica, Arial, sans-serif" role="img" aria-labelledby="t-14-compare-code-modernization"><title id="t-14-compare-code-modernization">code-modernization vs Unwind: what we borrow</title><defs><marker id="m-g" markerWidth="9" markerHeight="9" refX="7" refY="4.5" orient="auto"><path d="M0 0 L9 4.5 L0 9 z" fill="#94A3B8"/></marker><marker id="m-o" markerWidth="9" markerHeight="9" refX="7" refY="4.5" orient="auto"><path d="M0 0 L9 4.5 L0 9 z" fill="#EA580C"/></marker><marker id="m-b" markerWidth="9" markerHeight="9" refX="7" refY="4.5" orient="auto"><path d="M0 0 L9 4.5 L0 9 z" fill="#2563EB"/></marker><marker id="m-gr" markerWidth="9" markerHeight="9" refX="7" refY="4.5" orient="auto"><path d="M0 0 L9 4.5 L0 9 z" fill="#16A34A"/></marker><marker id="m-p" markerWidth="9" markerHeight="9" refX="7" refY="4.5" orient="auto"><path d="M0 0 L9 4.5 L0 9 z" fill="#7C3AED"/></marker></defs><rect x="0" y="0" width="1180" height="794" fill="#ffffff"/><text x="24" y="30" font-size="20" font-weight="700" fill="#0F172A">code-modernization vs Unwind: what we borrow</text><rect x="24" y="44" width="14" height="14" rx="4" fill="#EFF6FF" stroke="#2563EB" stroke-width="1.5"/><text x="44" y="55.5" font-size="12" fill="#475569">deterministic (engine / CLI)</text><rect x="251.44" y="44" width="14" height="14" rx="4" fill="#FFF7ED" stroke="#EA580C" stroke-width="1.5"/><text x="271.44" y="55.5" font-size="12" fill="#475569">LLM agent</text><rect x="355.76" y="44" width="14" height="14" rx="4" fill="#F1F5F9" stroke="#94A3B8" stroke-width="1.5" stroke-dasharray="3 2"/><text x="375.76" y="55.5" font-size="12" fill="#475569">artifact</text><rect x="453.6" y="44" width="14" height="14" rx="4" fill="#F0FDF4" stroke="#16A34A" stroke-width="1.5"/><text x="473.6" y="55.5" font-size="12" fill="#475569">human / external</text><rect x="603.28" y="44" width="14" height="14" rx="4" fill="#F5F3FF" stroke="#7C3AED" stroke-width="1.5"/><text x="623.28" y="55.5" font-size="12" fill="#475569">new in destination</text><text x="24" y="96" font-size="12.5" font-weight="700" fill="#14532D">code-modernization (Anthropic · Apache-2.0)</text><text x="826" y="96" font-size="12.5" font-weight="700" fill="#1E3A8A">Unwind destination</text><rect x="24" y="112" width="330" height="46" rx="8" fill="#F0FDF4" stroke="#16A34A" stroke-width="1.6"/><text x="38" y="130.16" font-size="13" font-weight="700" fill="#14532D">modernize</text><text x="38" y="147" font-size="11.5" fill="#475569">INTENT.md captured once</text><path d="M54 158 L54 168" fill="none" stroke="#94A3B8" stroke-width="1.6" marker-end="url(#m-g)"/><rect x="24" y="170" width="330" height="46" rx="8" fill="#F0FDF4" stroke="#16A34A" stroke-width="1.6"/><text x="38" y="188.16" font-size="13" font-weight="700" fill="#14532D">preflight</text><text x="38" y="205" font-size="11.5" fill="#475569">5 human questions · toolchain proof</text><path d="M54 216 L54 226" fill="none" stroke="#94A3B8" stroke-width="1.6" marker-end="url(#m-g)"/><rect x="24" y="228" width="330" height="46" rx="8" fill="#FFF7ED" stroke="#EA580C" stroke-width="1.6"/><text x="38" y="246.16" font-size="13" font-weight="700" fill="#9A3412">assess</text><text x="38" y="263" font-size="11.5" fill="#475569">scc/cloc · 3 parallel agents</text><path d="M54 274 L54 284" fill="none" stroke="#94A3B8" stroke-width="1.6" marker-end="url(#m-g)"/><rect x="24" y="286" width="330" height="46" rx="8" fill="#FFF7ED" stroke="#EA580C" stroke-width="1.6"/><text x="38" y="304.16" font-size="13" font-weight="700" fill="#9A3412">map</text><text x="38" y="321" font-size="11.5" fill="#475569">topology.json · LLM-written parser</text><path d="M54 332 L54 342" fill="none" stroke="#94A3B8" stroke-width="1.6" marker-end="url(#m-g)"/><rect x="24" y="344" width="330" height="46" rx="8" fill="#FFF7ED" stroke="#EA580C" stroke-width="1.6"/><text x="38" y="362.16" font-size="13" font-weight="700" fill="#9A3412">extract-rules</text><text x="38" y="379" font-size="11.5" fill="#475569">RULE cards · referee · P0 panel</text><path d="M54 390 L54 400" fill="none" stroke="#94A3B8" stroke-width="1.6" marker-end="url(#m-g)"/><rect x="24" y="402" width="330" height="46" rx="8" fill="#F0FDF4" stroke="#16A34A" stroke-width="1.6"/><text x="38" y="420.16" font-size="13" font-weight="700" fill="#14532D">review</text><text x="38" y="437" font-size="11.5" fill="#475569">SME confirms / wrong / discuss</text><path d="M54 448 L54 458" fill="none" stroke="#94A3B8" stroke-width="1.6" marker-end="url(#m-g)"/><rect x="24" y="460" width="330" height="46" rx="8" fill="#F0FDF4" stroke="#16A34A" stroke-width="1.6"/><text x="38" y="478.16" font-size="13" font-weight="700" fill="#14532D">brief</text><text x="38" y="495" font-size="11.5" fill="#475569">phases · Behavior Contract · approval</text><path d="M54 506 L54 516" fill="none" stroke="#94A3B8" stroke-width="1.6" marker-end="url(#m-g)"/><rect x="24" y="518" width="330" height="46" rx="8" fill="#FFF7ED" stroke="#EA580C" stroke-width="1.6"/><text x="38" y="536.16" font-size="13" font-weight="700" fill="#9A3412">uplift / transform / reimagine</text><text x="38" y="553" font-size="11.5" fill="#475569">pilot → PLAYBOOK → fan-out</text><path d="M54 564 L54 574" fill="none" stroke="#94A3B8" stroke-width="1.6" marker-end="url(#m-g)"/><rect x="24" y="576" width="330" height="46" rx="8" fill="#EFF6FF" stroke="#2563EB" stroke-width="1.6"/><text x="38" y="594.16" font-size="13" font-weight="700" fill="#1E3A8A">verify</text><text x="38" y="611" font-size="11.5" fill="#475569">proof pack · canary · fresh inputs</text><path d="M54 622 L54 632" fill="none" stroke="#94A3B8" stroke-width="1.6" marker-end="url(#m-g)"/><rect x="24" y="634" width="330" height="46" rx="8" fill="#FFF7ED" stroke="#EA580C" stroke-width="1.6"/><text x="38" y="652.16" font-size="13" font-weight="700" fill="#9A3412">harden</text><text x="38" y="669" font-size="11.5" fill="#475569">security findings · patch</text><rect x="826" y="112" width="330" height="46" rx="8" fill="#F5F3FF" stroke="#7C3AED" stroke-width="1.6"/><text x="840" y="130.16" font-size="13" font-weight="700" fill="#4C1D95">rw-start</text><text x="840" y="147" font-size="11.5" fill="#475569">front door · status + next command</text><path d="M856 158 L856 168" fill="none" stroke="#94A3B8" stroke-width="1.6" marker-end="url(#m-g)"/><rect x="826" y="170" width="330" height="46" rx="8" fill="#EFF6FF" stroke="#2563EB" stroke-width="1.6"/><text x="840" y="188.16" font-size="13" font-weight="700" fill="#1E3A8A">scan</text><text x="840" y="205" font-size="11.5" fill="#475569">tree-sitter manifest · candidate ids</text><path d="M856 216 L856 226" fill="none" stroke="#94A3B8" stroke-width="1.6" marker-end="url(#m-g)"/><rect x="826" y="228" width="330" height="46" rx="8" fill="#FFF7ED" stroke="#EA580C" stroke-width="1.6"/><text x="840" y="246.16" font-size="13" font-weight="700" fill="#9A3412">analyze</text><text x="840" y="263" font-size="11.5" fill="#475569">layer docs tagged [MUST]/[SHOULD]/[DON'T]</text><path d="M856 274 L856 284" fill="none" stroke="#94A3B8" stroke-width="1.6" marker-end="url(#m-g)"/><rect x="826" y="286" width="330" height="46" rx="8" fill="#EFF6FF" stroke="#2563EB" stroke-width="1.6"/><text x="840" y="304.16" font-size="13" font-weight="700" fill="#1E3A8A">coverage</text><text x="840" y="321" font-size="11.5" fill="#475569">manifest − docs → loop to 100%</text><path d="M856 332 L856 342" fill="none" stroke="#94A3B8" stroke-width="1.6" marker-end="url(#m-g)"/><rect x="826" y="344" width="330" height="46" rx="8" fill="#FFF7ED" stroke="#EA580C" stroke-width="1.6"/><text x="840" y="362.16" font-size="13" font-weight="700" fill="#9A3412">grill</text><text x="840" y="379" font-size="11.5" fill="#475569">hotspots · evidence-quoted verdicts</text><path d="M856 390 L856 400" fill="none" stroke="#94A3B8" stroke-width="1.6" marker-end="url(#m-g)"/><rect x="826" y="402" width="330" height="46" rx="8" fill="#F0FDF4" stroke="#16A34A" stroke-width="1.6"/><text x="840" y="420.16" font-size="13" font-weight="700" fill="#14532D">context gaps</text><text x="840" y="437" font-size="11.5" fill="#475569">routed stakeholder interviews</text><path d="M856 448 L856 458" fill="none" stroke="#94A3B8" stroke-width="1.6" marker-end="url(#m-g)"/><rect x="826" y="460" width="330" height="46" rx="8" fill="#F1F5F9" stroke="#94A3B8" stroke-width="1.6" stroke-dasharray="4 3"/><text x="840" y="478.16" font-size="13" font-weight="700" fill="#334155">rw-spec → Spec</text><text x="840" y="495" font-size="11.5" fill="#475569">stack-neutral typed IR</text><path d="M856 506 L856 516" fill="none" stroke="#94A3B8" stroke-width="1.6" marker-end="url(#m-g)"/><rect x="826" y="518" width="330" height="46" rx="8" fill="#F5F3FF" stroke="#7C3AED" stroke-width="1.6"/><text x="840" y="536.16" font-size="13" font-weight="700" fill="#4C1D95">Server + slices</text><text x="840" y="553" font-size="11.5" fill="#475569">push · converge · seams</text><path d="M856 564 L856 574" fill="none" stroke="#94A3B8" stroke-width="1.6" marker-end="url(#m-g)"/><rect x="826" y="576" width="330" height="46" rx="8" fill="#EFF6FF" stroke="#2563EB" stroke-width="1.6"/><text x="840" y="594.16" font-size="13" font-weight="700" fill="#1E3A8A">Play · kits + holes</text><text x="840" y="611" font-size="11.5" fill="#475569">recipes generate · LLM fills holes</text><path d="M856 622 L856 632" fill="none" stroke="#94A3B8" stroke-width="1.6" marker-end="url(#m-g)"/><rect x="826" y="634" width="330" height="46" rx="8" fill="#EFF6FF" stroke="#2563EB" stroke-width="1.6"/><text x="840" y="652.16" font-size="13" font-weight="700" fill="#1E3A8A">verify</text><text x="840" y="669" font-size="11.5" fill="#475569">structural diff + behaviour parity</text><path d="M354 193 L404 193 L776 135 L824 135" fill="none" stroke="#7C3AED" stroke-width="1.6" stroke-dasharray="5 4" marker-end="url(#m-p)"/><rect x="482.95" y="152" width="214.1" height="18" rx="4" fill="#ffffff" stroke="#DDD6FE" stroke-width="1"/><text x="590" y="165.5" font-size="11.5" font-weight="600" text-anchor="middle" fill="#4C1D95">preflight + INTENT → rw-start</text><path d="M354 367 L404 367 L776 483 L824 483" fill="none" stroke="#7C3AED" stroke-width="1.6" stroke-dasharray="5 4" marker-end="url(#m-p)"/><rect x="431.20000000000005" y="413" width="317.59999999999997" height="18" rx="4" fill="#ffffff" stroke="#DDD6FE" stroke-width="1"/><text x="590" y="426.5" font-size="11.5" font-weight="600" text-anchor="middle" fill="#4C1D95">rule cards + referee panel → Spec operations</text><path d="M354 541 L404 541 L776 599 L824 599" fill="none" stroke="#7C3AED" stroke-width="1.6" stroke-dasharray="5 4" marker-end="url(#m-p)"/><rect x="424.3" y="558" width="331.4" height="18" rx="4" fill="#ffffff" stroke="#DDD6FE" stroke-width="1"/><text x="590" y="571.5" font-size="11.5" font-weight="600" text-anchor="middle" fill="#4C1D95">pilot → playbook → circuit breaker → Play loop</text><path d="M354 599 L404 599 L776 657 L824 657" fill="none" stroke="#7C3AED" stroke-width="1.6" stroke-dasharray="5 4" marker-end="url(#m-p)"/><rect x="434.65" y="616" width="310.7" height="18" rx="4" fill="#ffffff" stroke="#DDD6FE" stroke-width="1"/><text x="590" y="629.5" font-size="11.5" font-weight="600" text-anchor="middle" fill="#4C1D95">proof pack · canary · fresh inputs → parity</text><rect x="24" y="698" width="1132" height="46" rx="10" fill="#F5F3FF" stroke="#7C3AED" stroke-width="1.6"/><text x="590" y="725.16" font-size="13" font-weight="700" text-anchor="middle" fill="#4C1D95">untrusted-content discipline + secrets quarantine → every Unwind agent, uw-publish and Server ingest</text><path d="M189 680 L189 696" fill="none" stroke="#7C3AED" stroke-width="1.6" stroke-dasharray="5 4" marker-end="url(#m-p)"/><path d="M991 698 L991 682" fill="none" stroke="#7C3AED" stroke-width="1.6" stroke-dasharray="5 4" marker-end="url(#m-p)"/><text x="24" y="772" font-size="12" fill="#64748B">Dashed purple = an idea Unwind borrows (see 01b §1b.8). Unwind keeps its own deterministic spine: scan, candidate ids, coverage by set arithmetic.</text></svg>
